<svg width="113" height="135" viewBox="0 0 113 135" fill="none" xmlns="http://www.w3.org/2000/svg">
<path d="M4.95181 130.341C4.09848 130.341 3.28248 130.213 2.50381 129.957C1.72515 129.69 1.11181 129.349 0.663813 128.933L1.25581 127.685C1.68248 128.058 2.22648 128.368 2.88781 128.613C3.54915 128.858 4.23715 128.981 4.95181 128.981C5.60248 128.981 6.13048 128.906 6.53581 128.757C6.94115 128.608 7.23981 128.405 7.43181 128.149C7.62381 127.882 7.71981 127.584 7.71981 127.253C7.71981 126.869 7.59181 126.56 7.33581 126.325C7.09048 126.09 6.76515 125.904 6.35981 125.765C5.96515 125.616 5.52781 125.488 5.04781 125.381C4.56781 125.274 4.08248 125.152 3.59181 125.013C3.11181 124.864 2.66915 124.677 2.26381 124.453C1.86915 124.229 1.54915 123.93 1.30381 123.557C1.05848 123.173 0.935813 122.682 0.935813 122.085C0.935813 121.509 1.08515 120.981 1.38381 120.501C1.69315 120.01 2.16248 119.621 2.79181 119.333C3.43181 119.034 4.24248 118.885 5.22381 118.885C5.87448 118.885 6.51981 118.97 7.15981 119.141C7.79981 119.312 8.35448 119.557 8.82381 119.877L8.29581 121.157C7.81581 120.837 7.30915 120.608 6.77581 120.469C6.24248 120.32 5.72515 120.245 5.22381 120.245C4.59448 120.245 4.07715 120.325 3.67181 120.485C3.26648 120.645 2.96781 120.858 2.77581 121.125C2.59448 121.392 2.50381 121.69 2.50381 122.021C2.50381 122.416 2.62648 122.73 2.87181 122.965C3.12781 123.2 3.45315 123.386 3.84781 123.525C4.25315 123.664 4.69581 123.792 5.17581 123.909C5.65581 124.016 6.13581 124.138 6.61581 124.277C7.10648 124.416 7.54915 124.597 7.94381 124.821C8.34915 125.045 8.67448 125.344 8.91981 125.717C9.16515 126.09 9.28781 126.57 9.28781 127.157C9.28781 127.722 9.13315 128.25 8.82381 128.741C8.51448 129.221 8.03448 129.61 7.38381 129.909C6.74381 130.197 5.93315 130.341 4.95181 130.341ZM16.6653 130.213V128.421L16.5853 128.085V125.029C16.5853 124.378 16.3933 123.877 16.0093 123.525C15.636 123.162 15.0706 122.981 14.3133 122.981C13.812 122.981 13.3213 123.066 12.8413 123.237C12.3613 123.397 11.956 123.616 11.6253 123.893L10.9853 122.741C11.4226 122.389 11.9453 122.122 12.5533 121.941C13.172 121.749 13.8173 121.653 14.4893 121.653C15.652 121.653 16.548 121.936 17.1773 122.501C17.8066 123.066 18.1213 123.93 18.1213 125.093V130.213H16.6653ZM13.8813 130.309C13.252 130.309 12.6973 130.202 12.2173 129.989C11.748 129.776 11.3853 129.482 11.1293 129.109C10.8733 128.725 10.7453 128.293 10.7453 127.813C10.7453 127.354 10.852 126.938 11.0653 126.565C11.2893 126.192 11.6466 125.893 12.1373 125.669C12.6386 125.445 13.3106 125.333 14.1533 125.333H16.8413V126.437H14.2173C13.4493 126.437 12.932 126.565 12.6653 126.821C12.3986 127.077 12.2653 127.386 12.2653 127.749C12.2653 128.165 12.4306 128.501 12.7613 128.757C13.092 129.002 13.5506 129.125 14.1373 129.125C14.7133 129.125 15.2146 128.997 15.6413 128.741C16.0786 128.485 16.3933 128.112 16.5853 127.621L16.8893 128.677C16.6866 129.178 16.3293 129.578 15.8173 129.877C15.3053 130.165 14.66 130.309 13.8813 130.309ZM21.1878 130.213V120.981C21.1878 120.149 21.4278 119.488 21.9078 118.997C22.3985 118.496 23.0918 118.245 23.9878 118.245C24.3185 118.245 24.6331 118.288 24.9318 118.373C25.2411 118.448 25.5025 118.57 25.7158 118.741L25.2518 119.909C25.0918 119.781 24.9105 119.685 24.7078 119.621C24.5051 119.546 24.2918 119.509 24.0678 119.509C23.6198 119.509 23.2785 119.637 23.0438 119.893C22.8091 120.138 22.6918 120.506 22.6918 120.997V122.133L22.7238 122.837V130.213H21.1878ZM19.7478 122.997V121.733H25.1558V122.997H19.7478ZM30.2554 130.309C29.3488 130.309 28.5488 130.122 27.8554 129.749C27.1728 129.376 26.6394 128.864 26.2554 128.213C25.8821 127.562 25.6954 126.816 25.6954 125.973C25.6954 125.13 25.8768 124.384 26.2394 123.733C26.6128 123.082 27.1194 122.576 27.7594 122.213C28.4101 121.84 29.1408 121.653 29.9514 121.653C30.7728 121.653 31.4981 121.834 32.1274 122.197C32.7568 122.56 33.2474 123.072 33.5994 123.733C33.9621 124.384 34.1434 125.146 34.1434 126.021C34.1434 126.085 34.1381 126.16 34.1274 126.245C34.1274 126.33 34.1221 126.41 34.1114 126.485H26.8954V125.381H33.3114L32.6874 125.765C32.6981 125.221 32.5861 124.736 32.3514 124.309C32.1168 123.882 31.7914 123.552 31.3754 123.317C30.9701 123.072 30.4954 122.949 29.9514 122.949C29.4181 122.949 28.9434 123.072 28.5274 123.317C28.1114 123.552 27.7861 123.888 27.5514 124.325C27.3168 124.752 27.1994 125.242 27.1994 125.797V126.053C27.1994 126.618 27.3274 127.125 27.5834 127.573C27.8501 128.01 28.2181 128.352 28.6874 128.597C29.1568 128.842 29.6954 128.965 30.3034 128.965C30.8048 128.965 31.2581 128.88 31.6634 128.709C32.0794 128.538 32.4421 128.282 32.7514 127.941L33.5994 128.933C33.2154 129.381 32.7354 129.722 32.1594 129.957C31.5941 130.192 30.9594 130.309 30.2554 130.309ZM40.7972 130.213V119.013H45.1652C46.1465 119.013 46.9839 119.168 47.6772 119.477C48.3705 119.786 48.9039 120.234 49.2772 120.821C49.6505 121.408 49.8372 122.106 49.8372 122.917C49.8372 123.728 49.6505 124.426 49.2772 125.013C48.9039 125.589 48.3705 126.037 47.6772 126.357C46.9839 126.666 46.1465 126.821 45.1652 126.821H41.6772L42.3972 126.069V130.213H40.7972ZM42.3972 126.229L41.6772 125.429H45.1172C46.1412 125.429 46.9145 125.21 47.4372 124.773C47.9705 124.336 48.2372 123.717 48.2372 122.917C48.2372 122.117 47.9705 121.498 47.4372 121.061C46.9145 120.624 46.1412 120.405 45.1172 120.405H41.6772L42.3972 119.605V126.229ZM57.1497 130.213V128.421L57.0697 128.085V125.029C57.0697 124.378 56.8777 123.877 56.4937 123.525C56.1204 123.162 55.555 122.981 54.7977 122.981C54.2964 122.981 53.8057 123.066 53.3257 123.237C52.8457 123.397 52.4404 123.616 52.1097 123.893L51.4697 122.741C51.907 122.389 52.4297 122.122 53.0377 121.941C53.6564 121.749 54.3017 121.653 54.9737 121.653C56.1364 121.653 57.0324 121.936 57.6617 122.501C58.291 123.066 58.6057 123.93 58.6057 125.093V130.213H57.1497ZM54.3657 130.309C53.7364 130.309 53.1817 130.202 52.7017 129.989C52.2324 129.776 51.8697 129.482 51.6137 129.109C51.3577 128.725 51.2297 128.293 51.2297 127.813C51.2297 127.354 51.3364 126.938 51.5497 126.565C51.7737 126.192 52.131 125.893 52.6217 125.669C53.123 125.445 53.795 125.333 54.6377 125.333H57.3257V126.437H54.7017C53.9337 126.437 53.4164 126.565 53.1497 126.821C52.883 127.077 52.7497 127.386 52.7497 127.749C52.7497 128.165 52.915 128.501 53.2457 128.757C53.5764 129.002 54.035 129.125 54.6217 129.125C55.1977 129.125 55.699 128.997 56.1257 128.741C56.563 128.485 56.8777 128.112 57.0697 127.621L57.3737 128.677C57.171 129.178 56.8137 129.578 56.3017 129.877C55.7897 130.165 55.1444 130.309 54.3657 130.309ZM61.6599 133.413C61.2546 133.413 60.8599 133.344 60.4759 133.205C60.0919 133.077 59.7613 132.885 59.4839 132.629L60.1399 131.477C60.3533 131.68 60.5879 131.834 60.8439 131.941C61.0999 132.048 61.3719 132.101 61.6599 132.101C62.0333 132.101 62.3426 132.005 62.5879 131.813C62.8333 131.621 63.0626 131.28 63.2759 130.789L63.8039 129.621L63.9639 129.429L67.2919 121.733H68.7959L64.6839 131.061C64.4386 131.658 64.1613 132.128 63.8519 132.469C63.5533 132.81 63.2226 133.05 62.8599 133.189C62.4973 133.338 62.0973 133.413 61.6599 133.413ZM63.6759 130.485L59.8039 121.733H61.4039L64.6999 129.285L63.6759 130.485ZM80.8374 121.653C81.5201 121.653 82.1228 121.786 82.6454 122.053C83.1681 122.32 83.5734 122.725 83.8614 123.269C84.1601 123.813 84.3094 124.501 84.3094 125.333V130.213H82.7734V125.509C82.7734 124.688 82.5814 124.069 82.1974 123.653C81.8134 123.237 81.2748 123.029 80.5814 123.029C80.0694 123.029 79.6214 123.136 79.2374 123.349C78.8534 123.562 78.5548 123.877 78.3414 124.293C78.1388 124.709 78.0374 125.226 78.0374 125.845V130.213H76.5014V125.509C76.5014 124.688 76.3094 124.069 75.9254 123.653C75.5521 123.237 75.0134 123.029 74.3094 123.029C73.8081 123.029 73.3654 123.136 72.9814 123.349C72.5974 123.562 72.2988 123.877 72.0854 124.293C71.8721 124.709 71.7654 125.226 71.7654 125.845V130.213H70.2294V121.733H71.7014V123.989L71.4614 123.413C71.7281 122.858 72.1388 122.426 72.6934 122.117C73.2481 121.808 73.8934 121.653 74.6294 121.653C75.4401 121.653 76.1388 121.856 76.7254 122.261C77.3121 122.656 77.6961 123.258 77.8774 124.069L77.2534 123.813C77.5094 123.162 77.9574 122.64 78.5974 122.245C79.2374 121.85 79.9841 121.653 80.8374 121.653ZM90.9117 130.309C90.005 130.309 89.205 130.122 88.5117 129.749C87.829 129.376 87.2957 128.864 86.9117 128.213C86.5384 127.562 86.3517 126.816 86.3517 125.973C86.3517 125.13 86.533 124.384 86.8957 123.733C87.269 123.082 87.7757 122.576 88.4157 122.213C89.0664 121.84 89.797 121.653 90.6077 121.653C91.429 121.653 92.1544 121.834 92.7837 122.197C93.413 122.56 93.9037 123.072 94.2557 123.733C94.6184 124.384 94.7997 125.146 94.7997 126.021C94.7997 126.085 94.7944 126.16 94.7837 126.245C94.7837 126.33 94.7784 126.41 94.7677 126.485H87.5517V125.381H93.9677L93.3437 125.765C93.3544 125.221 93.2424 124.736 93.0077 124.309C92.773 123.882 92.4477 123.552 92.0317 123.317C91.6264 123.072 91.1517 122.949 90.6077 122.949C90.0744 122.949 89.5997 123.072 89.1837 123.317C88.7677 123.552 88.4424 123.888 88.2077 124.325C87.973 124.752 87.8557 125.242 87.8557 125.797V126.053C87.8557 126.618 87.9837 127.125 88.2397 127.573C88.5064 128.01 88.8744 128.352 89.3437 128.597C89.813 128.842 90.3517 128.965 90.9597 128.965C91.461 128.965 91.9144 128.88 92.3197 128.709C92.7357 128.538 93.0984 128.282 93.4077 127.941L94.2557 128.933C93.8717 129.381 93.3917 129.722 92.8157 129.957C92.2504 130.192 91.6157 130.309 90.9117 130.309ZM101.461 121.653C102.154 121.653 102.762 121.786 103.285 122.053C103.818 122.32 104.234 122.725 104.533 123.269C104.831 123.813 104.981 124.501 104.981 125.333V130.213H103.445V125.509C103.445 124.688 103.242 124.069 102.837 123.653C102.442 123.237 101.882 123.029 101.157 123.029C100.613 123.029 100.138 123.136 99.7326 123.349C99.3272 123.562 99.0126 123.877 98.7886 124.293C98.5752 124.709 98.4686 125.226 98.4686 125.845V130.213H96.9326V121.733H98.4046V124.021L98.1646 123.413C98.4419 122.858 98.8686 122.426 99.4446 122.117C100.021 121.808 100.693 121.653 101.461 121.653ZM110.735 130.309C109.882 130.309 109.221 130.08 108.751 129.621C108.282 129.162 108.047 128.506 108.047 127.653V119.877H109.583V127.589C109.583 128.048 109.695 128.4 109.919 128.645C110.154 128.89 110.485 129.013 110.911 129.013C111.391 129.013 111.791 128.88 112.111 128.613L112.591 129.717C112.357 129.92 112.074 130.069 111.743 130.165C111.423 130.261 111.087 130.309 110.735 130.309ZM106.607 122.997V121.733H112.015V122.997H106.607Z" fill="#1C1C1C"/>
<path d="M112.531 42.3127C112.531 41.6095 112.109 41.1803 111.413 41.1011C110.811 41.0311 110.201 41.0159 109.596 40.9854C105.789 40.8058 102.091 40.1086 98.5273 38.7082C97.6067 38.346 97.2269 37.935 97.233 36.8482C97.2907 26.8414 97.2633 16.8316 97.2725 6.82485C97.2725 5.98157 97.1813 5.16264 96.917 4.36807C96.0784 1.83518 94.0852 0.516978 91.0439 0.516978C76.9885 0.513934 62.9392 0.516978 48.8869 0.516978C47.2553 0.516978 45.6207 0.516978 43.9891 0.516978C31.2646 0.526111 18.5431 0.513934 5.82154 0.556554C2.84093 0.565688 0.449755 3.05291 0.446717 6.02724C0.437602 24.7499 0.437602 43.4726 0.446717 62.1923C0.449755 65.2092 2.94423 67.6721 5.94003 67.6752C10.7254 67.6782 15.5108 67.6752 20.2962 67.6752C37.1954 67.6752 54.0977 67.6813 70.9969 67.6569C71.8598 67.6569 72.3581 67.8274 72.6832 68.7011C73.2757 70.3024 74.1568 71.7698 75.0622 73.2159C78.9239 79.3837 84.2927 84.0598 90.0169 88.3828C90.6702 88.876 91.2626 88.7298 91.8764 88.261C94.6018 86.1909 97.2451 84.0324 99.7153 81.6578C104.75 76.8143 108.56 71.1975 110.662 64.4786C112.935 57.227 112.534 49.7531 112.531 42.3127ZM2.90473 10.3867C3.005 8.94676 2.91385 7.49765 2.93815 6.05159C2.9655 4.44418 4.01069 3.26906 5.5967 3.0316C6.08283 2.95854 6.57504 2.90374 7.06422 2.90374C34.9379 2.89765 62.8086 2.89765 90.6823 2.9007C92.9854 2.9007 94.2007 3.57959 94.6109 5.3727C95.0454 7.26933 94.702 9.23293 94.7749 11.163C94.7871 11.4857 94.5623 11.5101 94.3222 11.5071C94.0579 11.504 93.7905 11.5071 93.5262 11.5071C78.6414 11.5071 63.7535 11.5071 48.8687 11.5071C33.9444 11.5071 19.0201 11.4979 4.0988 11.5284C3.19641 11.5314 2.83485 11.3883 2.90473 10.3867ZM3.1083 15.0628C3.05057 14.11 3.41213 13.8634 4.24768 13.9943C4.28414 14.0004 4.32364 13.9943 4.3601 13.9943C34.0872 13.9943 63.8143 14.0004 93.5444 13.9669C94.62 13.9669 94.8539 14.2774 94.8023 15.2759C94.7203 16.8681 94.7172 18.4725 94.8023 20.0677C94.8539 21.0328 94.5592 21.2398 93.6173 21.2398C78.6961 21.2063 63.7748 21.2155 48.8535 21.2155C34.0842 21.2155 19.3148 21.1972 4.54543 21.2489C3.30579 21.252 3.03234 20.8836 3.10526 19.742C3.20553 18.1863 3.19945 16.6185 3.1083 15.0628ZM70.1614 65.3919C49.0905 65.3919 28.0166 65.3919 6.94572 65.395C5.7395 65.395 4.60012 65.2336 3.74027 64.2777C3.19034 63.6658 2.92296 62.9534 2.92296 62.1101C2.93208 49.5948 2.93815 37.0795 2.91081 24.5612C2.90777 23.7758 3.16907 23.6388 3.88004 23.6418C33.8745 23.657 63.869 23.657 93.8634 23.654C94.3648 23.654 94.8084 23.5566 94.7993 24.3603C94.7628 28.4214 94.781 32.4856 94.781 36.7447C93.6599 36.0627 92.7879 35.4021 91.9857 34.6562C91.2444 33.9682 90.576 33.9652 89.7981 34.6593C84.3686 39.4967 78.0094 41.6217 70.7721 41.1041C69.818 41.0372 69.1405 41.3842 69.1435 42.3828C69.1678 49.2112 68.7212 56.0762 70.5837 62.7768C70.8146 63.611 71.0395 64.4482 71.2977 65.3889C70.8875 65.3919 70.5229 65.3919 70.1614 65.3919ZM106.74 67.9218C103.945 74.0805 99.5087 78.9088 94.4073 83.1983C93.4198 84.0294 92.3838 84.7996 91.3902 85.6246C91.056 85.9016 90.8251 85.9869 90.4271 85.6794C83.9949 80.7202 78.2342 75.1916 74.8495 67.5899C72.6224 62.5881 71.7261 57.3183 71.5864 51.8902C71.5225 49.3817 71.5894 46.8701 71.5469 44.3616C71.5347 43.6918 71.6593 43.4392 72.4037 43.4605C79.1518 43.6583 85.1221 41.5304 90.3481 37.2805C90.7643 36.9425 91.0044 36.9578 91.3933 37.2622C96.3518 41.1924 102.131 42.8181 108.323 43.2656C110.112 43.3935 110.112 43.3965 110.112 45.1836C110.112 46.5901 110.112 47.9965 110.112 50.1032C110.286 55.8114 109.414 62.031 106.74 67.9218Z" fill="#1C1C1C"/>
<path d="M36.2079 39.3535C29.001 39.3444 21.7941 39.3444 14.5871 39.3535C12.5271 39.3566 11.5913 40.2821 11.5822 42.3309C11.567 45.5244 11.5761 48.7149 11.5792 51.9084C11.5822 54.3439 12.5028 55.2754 14.9335 55.2815C18.4246 55.2876 21.9126 55.2846 25.4036 55.2846C28.9676 55.2846 32.5346 55.3028 36.0986 55.2785C38.1646 55.2633 39.1734 54.2251 39.1764 52.1915C39.1825 48.9219 39.1825 45.6553 39.1764 42.3857C39.1734 40.3582 38.2011 39.3535 36.2079 39.3535ZM35.9102 52.8613C32.3827 52.8247 28.8521 52.8461 25.3246 52.8461C21.8336 52.8461 18.3425 52.8247 14.8515 52.8643C14.0858 52.8735 13.8883 52.633 13.8974 51.8962C13.9339 48.8184 13.9339 45.7375 13.8974 42.6597C13.8883 41.9077 14.1253 41.6825 14.8667 41.6855C21.8852 41.7098 28.9038 41.7098 35.9254 41.6855C36.6546 41.6825 36.8156 41.9534 36.8126 42.6201C36.7883 45.7375 36.7852 48.8549 36.8156 51.9723C36.8217 52.6664 36.612 52.8704 35.9102 52.8613Z" fill="#1C1C1C"/>
<path d="M98.6974 56.1189C96.9929 55.9149 97.3484 54.8098 97.3393 53.7808C97.3363 53.3638 97.3423 52.9436 97.3211 52.5266C97.1661 49.3696 94.6291 46.6632 91.6211 46.4409C88.0632 46.1761 85.192 48.2736 84.5054 51.5798C84.2623 52.7549 84.3717 53.927 84.3413 55.099C84.3291 55.4978 84.3474 55.7414 83.7913 55.851C82.3086 56.1432 81.7648 56.8708 81.7587 58.393C81.7435 61.5104 81.7435 64.6248 81.7587 67.7422C81.7678 69.511 82.6429 70.3695 84.4324 70.3847C86.5562 70.3999 88.68 70.3877 90.8038 70.3877C93.0036 70.3877 95.2033 70.406 97.4031 70.3816C98.983 70.3634 99.9796 69.4622 99.9948 67.9766C100.028 64.707 100.013 61.4404 100.001 58.1708C100.001 57.221 99.5725 56.2254 98.6974 56.1189ZM86.772 55.0442C86.8175 54.4019 86.778 53.7534 86.7841 53.108C86.8023 50.6391 88.4886 48.8673 90.8342 48.849C93.1464 48.8338 94.9268 50.6208 94.9998 53.0441C95.0848 55.8023 95.0848 55.8023 92.2865 55.8023C91.7943 55.8023 91.3021 55.8023 90.8099 55.8023C89.71 55.8023 88.6101 55.7658 87.5133 55.8175C86.8935 55.8449 86.7294 55.6257 86.772 55.0442ZM96.923 67.9492C94.9147 67.9218 92.9064 67.9401 90.898 67.9401C90.898 67.9675 90.898 67.9949 90.898 68.0223C88.9261 68.0223 86.9573 67.9949 84.9884 68.0375C84.317 68.0527 84.0648 67.9035 84.0769 67.1699C84.1225 64.5121 84.1286 61.8514 84.0739 59.1937C84.0557 58.3504 84.3474 58.2134 85.1161 58.2256C89.0142 58.2895 92.9155 58.4235 96.8106 58.1342C97.4061 58.0916 97.5975 58.2773 97.6006 58.8832C97.6097 61.6566 97.6431 64.4269 97.71 67.2003C97.7252 67.8305 97.4851 67.9553 96.923 67.9492Z" fill="#1C1C1C"/>
<path d="M91.612 61.5165C91.0894 61.1542 90.5456 61.1512 90.0534 61.5805C89.5976 61.9793 89.4943 63.8394 89.9136 64.3812C90.2964 64.8744 90.7856 65.0814 91.4024 64.7496C92.1073 64.3721 92.0769 63.7237 92.0526 63.2853C92.0343 62.5181 92.1741 61.9062 91.612 61.5165Z" fill="#1C1C1C"/>
</svg>
