<svg width="21" height="21" viewBox="0 0 22 23" fill="none" xmlns="http://www.w3.org/2000/svg">
<path d="M4.00002 5.64333L0.757019 2.40133L2.17202 0.986328L5.41402 4.22933H20.656C20.8119 4.22932 20.9656 4.26574 21.1049 4.3357C21.2442 4.40565 21.3652 4.50719 21.4583 4.63222C21.5513 4.75726 21.6139 4.90231 21.6409 5.05581C21.668 5.20932 21.6588 5.36702 21.614 5.51633L19.214 13.5163C19.1523 13.7224 19.0257 13.9031 18.8531 14.0315C18.6806 14.16 18.4712 14.2293 18.256 14.2293H6.00002V16.2293H17V18.2293H5.00002C4.7348 18.2293 4.48045 18.124 4.29291 17.9364C4.10538 17.7489 4.00002 17.4945 4.00002 17.2293V5.64333ZM5.50002 22.2293C5.10219 22.2293 4.72066 22.0713 4.43936 21.79C4.15805 21.5087 4.00002 21.1272 4.00002 20.7293C4.00002 20.3315 4.15805 19.95 4.43936 19.6687C4.72066 19.3874 5.10219 19.2293 5.50002 19.2293C5.89784 19.2293 6.27938 19.3874 6.56068 19.6687C6.84198 19.95 7.00002 20.3315 7.00002 20.7293C7.00002 21.1272 6.84198 21.5087 6.56068 21.79C6.27938 22.0713 5.89784 22.2293 5.50002 22.2293ZM17.5 22.2293C17.1022 22.2293 16.7207 22.0713 16.4394 21.79C16.1581 21.5087 16 21.1272 16 20.7293C16 20.3315 16.1581 19.95 16.4394 19.6687C16.7207 19.3874 17.1022 19.2293 17.5 19.2293C17.8978 19.2293 18.2794 19.3874 18.5607 19.6687C18.842 19.95 19 20.3315 19 20.7293C19 21.1272 18.842 21.5087 18.5607 21.79C18.2794 22.0713 17.8978 22.2293 17.5 22.2293Z" fill="#770015"/>
</svg>
