<svg width="21" height="21" viewBox="0 0 19 20" fill="none" xmlns="http://www.w3.org/2000/svg">
<path d="M11.576 15.5001L6.46599 12.7131C5.97548 13.2 5.3518 13.5308 4.67358 13.6637C3.99535 13.7967 3.29295 13.7259 2.65491 13.4602C2.01688 13.1945 1.47178 12.7459 1.08834 12.1709C0.704894 11.5959 0.500275 10.9202 0.500275 10.2291C0.500275 9.53798 0.704894 8.86232 1.08834 8.28731C1.47178 7.7123 2.01688 7.26368 2.65491 6.99801C3.29295 6.73235 3.99535 6.66153 4.67358 6.79449C5.3518 6.92744 5.97548 7.25822 6.46599 7.74511L11.576 4.95811C11.4007 4.13585 11.5273 3.27798 11.9326 2.54137C12.3378 1.80476 12.9947 1.23865 13.7831 0.946548C14.5714 0.65445 15.4386 0.655888 16.226 0.950601C17.0134 1.24531 17.6684 1.8136 18.0712 2.55155C18.474 3.2895 18.5978 4.14779 18.4198 4.96947C18.2418 5.79115 17.774 6.5213 17.1019 7.02642C16.4298 7.53153 15.5984 7.77784 14.7596 7.72031C13.9208 7.66278 13.1308 7.30526 12.534 6.71311L7.42399 9.50011C7.52592 9.98077 7.52592 10.4775 7.42399 10.9581L12.534 13.7451C13.1308 13.153 13.9208 12.7954 14.7596 12.7379C15.5984 12.6804 16.4298 12.9267 17.1019 13.4318C17.774 13.9369 18.2418 14.6671 18.4198 15.4888C18.5978 16.3104 18.474 17.1687 18.0712 17.9067C17.6684 18.6446 17.0134 19.2129 16.226 19.5076C15.4386 19.8023 14.5714 19.8038 13.7831 19.5117C12.9947 19.2196 12.3378 18.6535 11.9326 17.9169C11.5273 17.1803 11.4007 16.3224 11.576 15.5001Z" fill="#770015"/>
</svg>
